<svg width="33" height="34" viewBox="0 0 33 34" fill="none" xmlns="http://www.w3.org/2000/svg">
<path d="M23.1323 32.7494C21.8742 32.7494 20.1069 32.2806 17.4605 30.7572C14.2423 28.8978 11.7531 27.1812 8.5524 23.8921C5.46638 20.7146 3.96463 18.6573 1.86281 14.7168C-0.511642 10.2675 -0.106876 7.93536 0.345585 6.9386C0.884413 5.74727 1.67976 5.03474 2.70779 4.32751C3.2917 3.93335 3.90963 3.59546 4.55373 3.31813C4.61818 3.28958 4.67812 3.26235 4.73162 3.23778C5.05066 3.0897 5.53406 2.86591 6.14637 3.10497C6.555 3.26302 6.9198 3.58642 7.49086 4.16747C8.66197 5.35747 10.2623 8.00774 10.8527 9.30931C11.2491 10.1865 11.5114 10.7656 11.5121 11.415C11.5121 12.1754 11.1408 12.7618 10.6903 13.3946C10.6059 13.5135 10.5221 13.627 10.4409 13.7373C9.95039 14.4013 9.84275 14.5933 9.91365 14.9359C10.0574 15.6245 11.1292 17.6745 12.8907 19.4854C14.6522 21.2963 16.5845 22.3309 17.2555 22.4783C17.6023 22.5547 17.7924 22.4391 18.4576 21.9159C18.5529 21.8408 18.6509 21.7631 18.7534 21.6854C19.4405 21.1588 19.9832 20.7863 20.7037 20.7863H20.7076C21.3347 20.7863 21.8716 21.0665 22.7611 21.5287C23.9212 22.1317 26.5709 23.7593 27.733 24.9672C28.2983 25.5543 28.6134 25.9288 28.7675 26.3492C28.9995 26.982 28.781 27.4781 28.6386 27.8101C28.6147 27.8652 28.5883 27.9256 28.5606 27.9927C28.2893 28.6551 27.9594 29.2905 27.5751 29.8906C26.89 30.9465 26.1958 31.7639 25.0369 32.3197C24.4419 32.6097 23.7906 32.7567 23.1323 32.7494Z" fill="white"/>
</svg>
