<svg width="65" height="69" viewBox="0 0 65 69" fill="none" xmlns="http://www.w3.org/2000/svg">
<g clip-path="url(#clip0_0_922)">
<path d="M32.5 68.9998C50.4493 68.9998 65 54.5887 65 36.8117C65 19.0347 50.4493 4.62354 32.5 4.62354C14.5507 4.62354 0 19.0347 0 36.8117C0 54.5887 14.5507 68.9998 32.5 68.9998Z" fill="#6F3DFF"/>
<path d="M25.8439 27.9192C25.9827 24.0683 28.274 22.418 32.4399 22.418C36.2587 22.418 38.3416 24.0683 38.3416 26.8877C38.3416 30.8761 32.6482 31.3574 26.6076 32.8702C20.6365 34.3831 15.082 37.4086 15.082 44.0788C15.082 50.6804 19.9422 53.7061 26.5382 53.7061C35.7726 53.7061 37.9944 45.7981 37.9944 45.7981H38.3416V52.6747H48.0618V28.263C48.0618 18.9797 41.1187 15.8853 32.4399 15.8853C24.1081 15.8853 16.6789 18.7734 16.1235 27.9192H25.8439ZM38.3416 34.6582C38.3416 39.9531 36.6056 47.5171 30.0098 47.5171C26.8854 47.5171 24.9413 45.7981 24.9413 43.0474C24.9413 39.8844 27.5797 38.3027 30.7041 37.5462C33.4814 36.8587 36.7446 36.1022 38.3416 34.6582Z" fill="#F7FAFF"/>
<path d="M46.5093 0.687653C45.8615 1.32946 45.005 2.1088 43.9402 3.02567C42.8758 3.94253 41.7417 4.90526 40.5383 5.9138C39.2886 6.92237 38.0852 7.88506 36.9278 8.80195C35.7244 9.67298 34.6829 10.4065 33.8034 11.0024H26.9297V10.1085C27.6703 9.23746 28.5498 8.22889 29.5681 7.08281C30.5401 5.89089 31.5122 4.67603 32.4842 3.43826C33.4563 2.15465 34.2663 1.00856 34.9143 0H46.5093V0.687653Z" fill="#FFC700"/>
</g>
<defs>
<clipPath id="clip0_0_922">
<rect width="65" height="69" fill="white"/>
</clipPath>
</defs>
</svg>
