<svg width="33" height="33" viewBox="0 0 33 33" fill="none" xmlns="http://www.w3.org/2000/svg">
<path d="M32.1869 16.1423C32.217 12.3648 30.9096 8.69851 28.4961 5.79242C26.0826 2.88633 22.7187 0.927913 18.9999 0.263883C15.2811 -0.400147 11.4473 0.273037 8.17714 2.16426C4.90702 4.05548 2.41154 7.04276 1.13245 10.5972C-0.146626 14.1517 -0.126795 18.0441 1.18844 21.5854C2.50367 25.1266 5.02947 28.0883 8.31868 29.9461C11.6079 31.804 15.4484 32.438 19.1602 31.7361C22.872 31.0343 26.2158 29.0417 28.5996 26.1111L23.9311 22.3137C22.4439 24.142 20.3578 25.3851 18.0421 25.823C15.7263 26.2609 13.3303 25.8653 11.2783 24.7063C9.22618 23.5472 7.65038 21.6995 6.82984 19.4902C6.00929 17.2808 5.99692 14.8524 6.79491 12.6349C7.5929 10.4173 9.14979 8.5536 11.1899 7.37371C13.2301 6.19381 15.6219 5.77383 17.942 6.1881C20.2621 6.60238 22.3608 7.82419 23.8665 9.63724C25.3723 11.4503 26.1879 13.7376 26.1691 16.0943L32.1869 16.1423Z" fill="#FFC700"/>
</svg>
