<svg width="678" height="271" viewBox="0 0 678 271" fill="none" xmlns="http://www.w3.org/2000/svg">
<rect x="196.5" y="113.5" width="481" height="86" rx="41.5" fill="#6F3DFF" stroke="#6F3DFF"/>
<path d="M31.904 106V60.56H51.488C53.7067 60.56 55.7547 61.008 57.632 61.904C59.5093 62.8 61.1307 64.016 62.496 65.552C63.8613 67.0453 64.9067 68.7307 65.632 70.608C66.4 72.4853 66.784 74.384 66.784 76.304C66.784 78.992 66.144 81.5307 64.864 83.92C63.6267 86.3093 61.8773 88.272 59.616 89.808C57.3973 91.3013 54.7947 92.048 51.808 92.048H44.384V106H31.904ZM44.384 81.168H50.976C51.488 81.168 51.9787 81.0187 52.448 80.72C52.9173 80.4213 53.3013 79.9093 53.6 79.184C53.9413 78.4587 54.112 77.4987 54.112 76.304C54.112 75.024 53.92 74.0427 53.536 73.36C53.1947 72.6347 52.7467 72.144 52.192 71.888C51.68 71.5893 51.168 71.44 50.656 71.44H44.384V81.168ZM104.163 95.12V106H71.779V60.56H103.587V71.44H84.259V77.84H100.771V87.952H84.259V95.12H104.163ZM110.223 106V60.56H149.199V106H136.719V71.44H122.703V106H110.223ZM189.663 95.12V106H157.279V60.56H189.087V71.44H169.759V77.84H186.271V87.952H169.759V95.12H189.663ZM230.859 71.44H217.803V106H205.323V71.44H192.203V60.56H230.859V71.44ZM235.66 106V60.56H248.14V88.208L264.908 60.56H276.556V106H264.076V78.352L247.5 106H235.66ZM319.984 71.44H306.928V106H294.448V71.44H281.328V60.56H319.984V71.44ZM344.322 106.384C340.866 106.384 337.73 105.744 334.914 104.464C332.098 103.141 329.666 101.392 327.618 99.216C325.612 96.9973 324.055 94.5227 322.946 91.792C321.879 89.0187 321.346 86.16 321.346 83.216C321.346 80.1867 321.922 77.3067 323.074 74.576C324.226 71.8453 325.826 69.4133 327.874 67.28C329.964 65.104 332.418 63.3973 335.234 62.16C338.092 60.9227 341.207 60.304 344.578 60.304C348.034 60.304 351.17 60.9653 353.986 62.288C356.802 63.568 359.212 65.3173 361.218 67.536C363.223 69.7547 364.759 72.2507 365.826 75.024C366.935 77.7547 367.49 80.5707 367.49 83.472C367.49 86.4587 366.914 89.3173 365.762 92.048C364.652 94.7787 363.052 97.232 360.962 99.408C358.914 101.541 356.482 103.248 353.666 104.528C350.85 105.765 347.735 106.384 344.322 106.384ZM334.018 83.344C334.018 84.88 334.231 86.3733 334.658 87.824C335.084 89.232 335.724 90.512 336.578 91.664C337.431 92.7733 338.498 93.6693 339.778 94.352C341.1 94.992 342.658 95.312 344.45 95.312C346.242 95.312 347.799 94.9707 349.122 94.288C350.444 93.6053 351.511 92.688 352.322 91.536C353.175 90.3413 353.794 89.04 354.178 87.632C354.604 86.1813 354.818 84.7093 354.818 83.216C354.818 81.68 354.604 80.208 354.178 78.8C353.751 77.392 353.111 76.1333 352.257 75.024C351.404 73.872 350.316 72.976 348.994 72.336C347.671 71.696 346.135 71.376 344.386 71.376C342.594 71.376 341.036 71.7173 339.714 72.4C338.434 73.0827 337.367 74 336.514 75.152C335.66 76.2613 335.02 77.5413 334.594 78.992C334.21 80.4 334.018 81.8507 334.018 83.344ZM372.779 106V60.56H392.363C394.582 60.56 396.63 61.008 398.507 61.904C400.384 62.8 402.006 64.016 403.371 65.552C404.736 67.0453 405.782 68.7307 406.507 70.608C407.275 72.4853 407.659 74.384 407.659 76.304C407.659 78.992 407.019 81.5307 405.739 83.92C404.502 86.3093 402.752 88.272 400.491 89.808C398.272 91.3013 395.67 92.048 392.683 92.048H385.259V106H372.779ZM385.259 81.168H391.851C392.363 81.168 392.854 81.0187 393.323 80.72C393.792 80.4213 394.176 79.9093 394.475 79.184C394.816 78.4587 394.987 77.4987 394.987 76.304C394.987 75.024 394.795 74.0427 394.411 73.36C394.07 72.6347 393.622 72.144 393.067 71.888C392.555 71.5893 392.043 71.44 391.531 71.44H385.259V81.168ZM104.035 181V135.56H143.011V181H130.531V146.44H116.515V181H104.035ZM171.572 181.384C168.116 181.384 164.98 180.744 162.164 179.464C159.348 178.141 156.916 176.392 154.868 174.216C152.862 171.997 151.305 169.523 150.196 166.792C149.129 164.019 148.596 161.16 148.596 158.216C148.596 155.187 149.172 152.307 150.324 149.576C151.476 146.845 153.076 144.413 155.124 142.28C157.214 140.104 159.668 138.397 162.484 137.16C165.342 135.923 168.457 135.304 171.828 135.304C175.284 135.304 178.42 135.965 181.236 137.288C184.052 138.568 186.462 140.317 188.468 142.536C190.473 144.755 192.009 147.251 193.076 150.024C194.185 152.755 194.74 155.571 194.74 158.472C194.74 161.459 194.164 164.317 193.012 167.048C191.902 169.779 190.302 172.232 188.212 174.408C186.164 176.541 183.732 178.248 180.916 179.528C178.1 180.765 174.985 181.384 171.572 181.384ZM161.268 158.344C161.268 159.88 161.481 161.373 161.908 162.824C162.334 164.232 162.974 165.512 163.828 166.664C164.681 167.773 165.748 168.669 167.028 169.352C168.35 169.992 169.908 170.312 171.7 170.312C173.492 170.312 175.049 169.971 176.372 169.288C177.694 168.605 178.761 167.688 179.572 166.536C180.425 165.341 181.044 164.04 181.428 162.632C181.854 161.181 182.068 159.709 182.068 158.216C182.068 156.68 181.854 155.208 181.428 153.8C181.001 152.392 180.361 151.133 179.507 150.024C178.654 148.872 177.566 147.976 176.244 147.336C174.921 146.696 173.385 146.376 171.636 146.376C169.844 146.376 168.286 146.717 166.964 147.4C165.684 148.083 164.617 149 163.764 150.152C162.91 151.261 162.27 152.541 161.844 153.992C161.46 155.4 161.268 156.851 161.268 158.344ZM29.6 264.704V245.12H32.416C33.4827 245.12 34.4213 244.693 35.232 243.84C36.0427 242.987 36.7253 241.685 37.28 239.936C37.8347 238.187 38.2613 235.989 38.56 233.344C38.9013 230.656 39.136 227.499 39.264 223.872L39.648 210.56H72.608V245.12H79.008V264.704H68.128V256H40.48V264.704H29.6ZM46.56 245.12H60.128V221.44H51.04L50.912 225.664C50.8267 228.949 50.6347 231.851 50.336 234.368C50.08 236.843 49.6533 238.976 49.056 240.768C48.5013 242.56 47.6693 244.011 46.56 245.12ZM112.362 256V221.44H103.53L103.274 227.584C103.018 233.387 102.463 238.165 101.61 241.92C100.799 245.632 99.5828 248.555 97.9615 250.688C96.3402 252.779 94.2495 254.272 91.6895 255.168C89.1722 256.021 86.1215 256.448 82.5375 256.448V245.696C83.9882 245.696 85.2255 245.44 86.2495 244.928C87.3162 244.373 88.1908 243.349 88.8735 241.856C89.5988 240.32 90.1535 238.123 90.5375 235.264C90.9642 232.363 91.2628 228.565 91.4335 223.872L91.9455 210.56H124.842V256H112.362ZM131.438 256L141.742 238.656C139.267 237.547 137.326 235.84 135.918 233.536C134.51 231.189 133.806 228.459 133.806 225.344C133.806 222.443 134.467 219.883 135.79 217.664C137.113 215.445 138.926 213.717 141.23 212.48C143.534 211.2 146.158 210.56 149.102 210.56H169.966V256H157.486V240.128H155.886C155.63 240.128 155.353 240.128 155.054 240.128C154.798 240.128 154.542 240.128 154.286 240.128L145.454 256H131.438ZM150.894 229.568H157.486V221.12H150.894C150.211 221.12 149.529 221.248 148.846 221.504C148.163 221.717 147.587 222.144 147.118 222.784C146.691 223.381 146.478 224.235 146.478 225.344C146.478 226.453 146.691 227.328 147.118 227.968C147.545 228.565 148.099 228.992 148.782 229.248C149.465 229.461 150.169 229.568 150.894 229.568ZM205.594 256.576C202.266 256.576 199.258 255.957 196.57 254.72C193.925 253.44 191.877 251.669 190.426 249.408L197.082 241.728C198.319 243.051 199.685 244.096 201.178 244.864C202.714 245.589 204.207 245.952 205.658 245.952C206.725 245.952 207.621 245.76 208.346 245.376C209.114 244.992 209.69 244.437 210.074 243.712C210.501 242.987 210.714 242.155 210.714 241.216C210.714 240.277 210.522 239.467 210.138 238.784C209.797 238.059 209.285 237.504 208.602 237.12C207.962 236.736 207.194 236.544 206.298 236.544C205.402 236.544 204.57 236.757 203.802 237.184C203.077 237.568 202.522 238.101 202.138 238.784H191.706L197.082 210.496H219.866V221.568H205.85L205.146 226.496C205.146 226.496 205.381 226.453 205.85 226.368C206.319 226.24 207.066 226.176 208.09 226.176C211.034 226.176 213.637 226.816 215.898 228.096C218.159 229.333 219.93 231.061 221.21 233.28C222.533 235.499 223.194 238.059 223.194 240.96C223.194 244.032 222.447 246.741 220.954 249.088C219.461 251.435 217.391 253.269 214.746 254.592C212.143 255.915 209.093 256.576 205.594 256.576ZM228.7 243.776V232.896H248.732V243.776H228.7ZM285.729 245.12V256H256.098V245.12H265.186V221.952C264.844 222.464 264.268 223.04 263.458 223.68C262.647 224.277 261.708 224.875 260.642 225.472C259.618 226.027 258.572 226.496 257.506 226.88C256.439 227.264 255.479 227.456 254.626 227.456V216.32C255.778 216.32 256.951 216.021 258.146 215.424C259.383 214.827 260.514 214.144 261.538 213.376C262.604 212.608 263.458 211.904 264.098 211.264C264.78 210.624 265.143 210.283 265.186 210.24H277.602V245.12H285.729ZM320.917 245.12V256H291.285V245.12H300.373V221.952C300.032 222.464 299.456 223.04 298.645 223.68C297.834 224.277 296.896 224.875 295.829 225.472C294.805 226.027 293.76 226.496 292.693 226.88C291.626 227.264 290.666 227.456 289.813 227.456V216.32C290.965 216.32 292.138 216.021 293.333 215.424C294.57 214.827 295.701 214.144 296.725 213.376C297.792 212.608 298.645 211.904 299.285 211.264C299.968 210.624 300.33 210.283 300.373 210.24H312.789V245.12H320.917ZM340.848 256V210.56H353.264V227.264H355.824L367.536 210.56H381.232L365.232 232.512L382.704 256H367.6L355.312 238.592H353.264V256H340.848ZM415.049 256V221.44H406.217L405.961 227.584C405.705 233.387 405.15 238.165 404.297 241.92C403.486 245.632 402.27 248.555 400.649 250.688C399.028 252.779 396.937 254.272 394.377 255.168C391.86 256.021 388.809 256.448 385.225 256.448V245.696C386.676 245.696 387.913 245.44 388.937 244.928C390.004 244.373 390.878 243.349 391.561 241.856C392.286 240.32 392.841 238.123 393.225 235.264C393.652 232.363 393.95 228.565 394.121 223.872L394.633 210.56H427.529V256H415.049ZM445.838 210.56H459.79L474.254 256H461.582L458.83 247.104H446.734L444.046 256H431.309L445.838 210.56ZM456.846 238.784L452.814 222.784L448.59 238.784H456.846ZM473.658 232.896C473.658 230.123 474.17 227.413 475.194 224.768C476.261 222.08 477.797 219.648 479.802 217.472C481.807 215.296 484.239 213.568 487.098 212.288C489.999 210.965 493.263 210.304 496.89 210.304C501.242 210.304 505.039 211.221 508.282 213.056C511.525 214.848 513.935 217.237 515.514 220.224L505.978 227.008C505.423 225.515 504.613 224.363 503.546 223.552C502.522 222.741 501.391 222.187 500.154 221.888C498.959 221.547 497.786 221.376 496.634 221.376C494.842 221.376 493.285 221.739 491.962 222.464C490.682 223.147 489.615 224.064 488.762 225.216C487.951 226.368 487.333 227.648 486.906 229.056C486.522 230.464 486.33 231.872 486.33 233.28C486.33 234.859 486.565 236.373 487.034 237.824C487.503 239.275 488.186 240.576 489.082 241.728C489.978 242.837 491.066 243.712 492.346 244.352C493.669 244.992 495.141 245.312 496.762 245.312C497.914 245.312 499.087 245.141 500.282 244.8C501.477 244.416 502.565 243.819 503.546 243.008C504.527 242.197 505.274 241.109 505.786 239.744L515.962 245.824C515.066 248.043 513.573 249.941 511.482 251.52C509.391 253.099 507.023 254.315 504.378 255.168C501.733 255.979 499.109 256.384 496.506 256.384C493.135 256.384 490.042 255.723 487.226 254.4C484.453 253.035 482.042 251.243 479.994 249.024C477.989 246.763 476.431 244.245 475.322 241.472C474.213 238.656 473.658 235.797 473.658 232.896ZM517.221 232.896C517.221 230.123 517.733 227.413 518.757 224.768C519.823 222.08 521.359 219.648 523.365 217.472C525.37 215.296 527.802 213.568 530.661 212.288C533.562 210.965 536.826 210.304 540.453 210.304C544.805 210.304 548.602 211.221 551.845 213.056C555.087 214.848 557.498 217.237 559.077 220.224L549.541 227.008C548.986 225.515 548.175 224.363 547.109 223.552C546.085 222.741 544.954 222.187 543.717 221.888C542.522 221.547 541.349 221.376 540.197 221.376C538.405 221.376 536.847 221.739 535.525 222.464C534.245 223.147 533.178 224.064 532.325 225.216C531.514 226.368 530.895 227.648 530.469 229.056C530.085 230.464 529.893 231.872 529.893 233.28C529.893 234.859 530.127 236.373 530.597 237.824C531.066 239.275 531.749 240.576 532.645 241.728C533.541 242.837 534.629 243.712 535.909 244.352C537.231 244.992 538.703 245.312 540.325 245.312C541.477 245.312 542.65 245.141 543.845 244.8C545.039 244.416 546.127 243.819 547.109 243.008C548.09 242.197 548.837 241.109 549.349 239.744L559.525 245.824C558.629 248.043 557.135 249.941 555.045 251.52C552.954 253.099 550.586 254.315 547.941 255.168C545.295 255.979 542.671 256.384 540.069 256.384C536.698 256.384 533.605 255.723 530.789 254.4C528.015 253.035 525.605 251.243 523.557 249.024C521.551 246.763 519.994 244.245 518.885 241.472C517.775 238.656 517.221 235.797 517.221 232.896ZM583.759 256.384C580.303 256.384 577.167 255.744 574.351 254.464C571.535 253.141 569.103 251.392 567.055 249.216C565.05 246.997 563.492 244.523 562.383 241.792C561.316 239.019 560.783 236.16 560.783 233.216C560.783 230.187 561.359 227.307 562.511 224.576C563.663 221.845 565.263 219.413 567.311 217.28C569.402 215.104 571.855 213.397 574.671 212.16C577.53 210.923 580.644 210.304 584.015 210.304C587.471 210.304 590.607 210.965 593.423 212.288C596.239 213.568 598.65 215.317 600.655 217.536C602.66 219.755 604.196 222.251 605.263 225.024C606.372 227.755 606.927 230.571 606.927 233.472C606.927 236.459 606.351 239.317 605.199 242.048C604.09 244.779 602.49 247.232 600.399 249.408C598.351 251.541 595.919 253.248 593.103 254.528C590.287 255.765 587.172 256.384 583.759 256.384ZM573.455 233.344C573.455 234.88 573.668 236.373 574.095 237.824C574.522 239.232 575.162 240.512 576.015 241.664C576.868 242.773 577.935 243.669 579.215 244.352C580.538 244.992 582.095 245.312 583.887 245.312C585.679 245.312 587.236 244.971 588.559 244.288C589.882 243.605 590.948 242.688 591.759 241.536C592.612 240.341 593.231 239.04 593.615 237.632C594.042 236.181 594.255 234.709 594.255 233.216C594.255 231.68 594.042 230.208 593.615 228.8C593.188 227.392 592.548 226.133 591.695 225.024C590.842 223.872 589.754 222.976 588.431 222.336C587.108 221.696 585.572 221.376 583.823 221.376C582.031 221.376 580.474 221.717 579.151 222.4C577.871 223.083 576.804 224 575.951 225.152C575.098 226.261 574.458 227.541 574.031 228.992C573.647 230.4 573.455 231.851 573.455 233.344ZM650.873 244.352C650.873 247.083 650.126 249.301 648.633 251.008C647.182 252.715 645.219 253.973 642.745 254.784C640.27 255.595 637.539 256 634.553 256H612.217V210.56H638.585C640.718 210.56 642.553 211.136 644.089 212.288C645.667 213.397 646.862 214.848 647.673 216.64C648.526 218.432 648.953 220.288 648.953 222.208C648.953 224.299 648.398 226.325 647.289 228.288C646.222 230.251 644.601 231.723 642.425 232.704C645.027 233.472 647.075 234.816 648.569 236.736C650.105 238.656 650.873 241.195 650.873 244.352ZM638.201 241.792C638.201 241.024 638.051 240.363 637.753 239.808C637.497 239.211 637.134 238.741 636.665 238.4C636.195 238.059 635.641 237.888 635.001 237.888H624.697V245.504H634.553C635.235 245.504 635.854 245.355 636.409 245.056C636.963 244.757 637.39 244.331 637.689 243.776C638.03 243.221 638.201 242.56 638.201 241.792ZM624.697 221.184V228.16H633.209C633.763 228.16 634.297 228.075 634.809 227.904C635.321 227.691 635.747 227.328 636.089 226.816C636.43 226.304 636.601 225.579 636.601 224.64C636.601 223.787 636.451 223.125 636.153 222.656C635.897 222.144 635.534 221.781 635.065 221.568C634.638 221.312 634.147 221.184 633.593 221.184H624.697Z" fill="#252525"/>
<path d="M248.772 181V157.064L241.156 173.896H234.5L226.884 157.064V181H214.404V135.56H228.036L237.828 156.936L247.684 135.56H261.252V181H248.772ZM279.525 135.56H293.477L307.941 181H295.269L292.517 172.104H280.421L277.733 181H264.997L279.525 135.56ZM290.533 163.784L286.501 147.784L282.277 163.784H290.533ZM342.984 146.44H329.928V181H317.448V146.44H304.328V135.56H342.984V146.44ZM379.913 170.12V181H347.529V135.56H379.337V146.44H360.009V152.84H376.521V162.952H360.009V170.12H379.913ZM420.085 181V157.064L412.469 173.896H405.813L398.197 157.064V181H385.717V135.56H399.349L409.141 156.936L418.997 135.56H432.565V181H420.085ZM450.838 135.56H464.79L479.254 181H466.582L463.83 172.104H451.734L449.046 181H436.309L450.838 135.56ZM461.846 163.784L457.814 147.784L453.59 163.784H461.846ZM514.296 146.44H501.24V181H488.76V146.44H475.64V135.56H514.296V146.44ZM519.098 181V135.56H531.578V163.208L548.346 135.56H559.994V181H547.514V153.352L530.938 181H519.098ZM568.285 181V135.56H580.701V152.264H583.261L594.973 135.56H608.669L592.669 157.512L610.141 181H595.037L582.749 163.592H580.701V181H568.285ZM647.351 170.12V181H614.967V135.56H646.775V146.44H627.447V152.84H643.958V162.952H627.447V170.12H647.351Z" fill="white"/>
<path d="M27.293 40V225.203" stroke="#2D2F4C" stroke-opacity="0.13" stroke-miterlimit="10"/>
<path d="M83.6795 40V225.203" stroke="#2D2F4C" stroke-opacity="0.13" stroke-miterlimit="10"/>
<path d="M140.066 40V225.203" stroke="#2D2F4C" stroke-opacity="0.13" stroke-miterlimit="10"/>
<path d="M196.453 40V225.203" stroke="#2D2F4C" stroke-opacity="0.13" stroke-miterlimit="10"/>
<path d="M252.836 40V225.203" stroke="#2D2F4C" stroke-opacity="0.13" stroke-miterlimit="10"/>
<path d="M0 185.247H280.402" stroke="#2D2F4C" stroke-opacity="0.13" stroke-miterlimit="10"/>
<path d="M0 128.861H280.402" stroke="#2D2F4C" stroke-opacity="0.13" stroke-miterlimit="10"/>
<path d="M0 72.4753H280.402" stroke="#2D2F4C" stroke-opacity="0.13" stroke-miterlimit="10"/>
<path d="M443 0V55.9985" stroke="#2D2F4C" stroke-opacity="0.14" stroke-miterlimit="10"/>
<path d="M415 28.0002H470.999" stroke="#2D2F4C" stroke-opacity="0.14" stroke-miterlimit="10"/>
<path d="M462.797 8.20093L423.201 47.7972" stroke="#2D2F4C" stroke-opacity="0.14" stroke-miterlimit="10"/>
<path d="M423.199 8.20215L462.795 47.7984" stroke="#2D2F4C" stroke-opacity="0.14" stroke-miterlimit="10"/>
</svg>
