<svg width="294" height="89" viewBox="0 0 294 89" fill="none" xmlns="http://www.w3.org/2000/svg">
<path d="M1.38159 55.338H16.0224C23.7572 55.338 27.3483 52.5916 27.3483 47.0988C27.3483 41.6062 22.0997 40.5076 22.0997 40.5076V40.233C22.0997 40.233 26.5196 39.1344 26.5196 34.4656C26.5196 29.2476 22.6522 26.7759 15.1937 26.7759H1.38159V55.338ZM15.1937 43.254C17.9561 43.254 19.6135 44.3525 19.6135 46.5495C19.6135 48.7466 18.2323 49.8453 15.7461 49.8453H9.11637V43.254H15.1937ZM9.11637 38.3105V32.2685H15.1937C17.6798 32.2685 18.7848 33.3671 18.7848 35.2895C18.7848 37.212 17.4036 38.3105 14.6412 38.3105H9.11637Z" fill="#FFC700"/>
<path d="M28.9993 41.0571C28.9993 49.4058 33.9716 56.162 43.3638 56.162C56.0708 56.162 56.8995 44.902 56.8995 44.902H49.165C49.165 44.902 48.8886 50.3945 43.3638 50.3945C38.4467 50.3945 36.734 46.2202 36.734 41.0571C36.734 35.8939 38.4467 31.7194 43.3638 31.7194C48.8886 31.7194 49.165 37.2122 49.165 37.2122H56.8995C56.8995 37.2122 56.0708 25.9521 43.3638 25.9521C33.9716 25.9521 28.9993 32.7082 28.9993 41.0571Z" fill="#FFC700"/>
<path d="M59.1052 41.0571C59.1052 49.4058 63.8014 56.162 73.4696 56.162C85.348 56.162 87.0059 46.0004 87.0059 46.0004H79.2709C79.2709 46.0004 78.4422 50.3945 73.746 50.3945C69.1051 50.3945 67.2267 47.099 66.8955 42.7049H87.2265C87.2265 42.7049 87.2818 41.7162 87.2818 41.0571C87.2818 32.7082 82.9173 25.9521 73.4696 25.9521C64.0225 25.9521 59.1052 32.7082 59.1052 41.0571ZM73.4696 31.7194C77.2819 31.7194 78.8287 34.2461 79.3262 37.7614H67.1161C67.7794 34.2461 69.6574 31.7194 73.4696 31.7194Z" fill="#FFC700"/>
<path d="M124.564 26.7759H112.962L107.16 46.5495L101.36 26.7759H89.7571V55.338H96.9398V35.2895H97.2157L103.569 55.338H110.751L117.105 35.2895H117.381V55.338H124.564V26.7759Z" fill="#FFC700"/>
<path d="M169.311 26.7761H161.852V30.621H161.576C161.576 30.621 159.09 25.9521 152.736 25.9521C144.449 25.9521 140.305 33.0926 140.305 40.5078C140.305 47.9229 144.449 55.0634 152.736 55.0634C158.813 55.0634 161.299 51.2184 161.299 51.2184H161.576V52.5918C161.576 57.5349 159.863 60.2813 154.946 60.2813C149.421 60.2813 149.145 56.162 149.145 56.162H141.41C141.41 56.162 141.686 66.0488 154.946 66.0488C164.891 66.0488 169.311 60.2813 169.311 52.0422V26.7761ZM161.852 40.5078C161.852 45.1216 159.642 49.2959 154.946 49.2959C150.25 49.2959 148.04 45.1216 148.04 40.5078C148.04 35.8939 150.25 31.7194 154.946 31.7194C159.642 31.7194 161.852 35.8939 161.852 40.5078Z" fill="#FFC700"/>
<path d="M179.549 41.0571C179.549 35.8939 181.538 31.7194 186.455 31.7194C191.372 31.7194 193.361 35.8939 193.361 41.0571C193.361 46.2202 191.372 50.3945 186.455 50.3945C181.538 50.3945 179.549 46.2202 179.549 41.0571ZM171.814 41.0571C171.814 49.4058 177.008 56.162 186.455 56.162C195.902 56.162 201.096 49.4058 201.096 41.0571C201.096 32.7082 195.902 25.9521 186.455 25.9521C177.008 25.9521 171.814 32.7082 171.814 41.0571Z" fill="#FFC700"/>
<path d="M211.334 41.8809C211.334 37.267 213.323 33.3672 218.24 33.3672C223.157 33.3672 225.146 37.267 225.146 41.8809C225.146 46.4947 223.157 50.3945 218.24 50.3945C213.323 50.3945 211.334 46.4947 211.334 41.8809ZM218.24 56.1619C227.908 56.1619 232.881 49.5706 232.881 41.8809C232.881 33.9165 227.908 27.5999 219.345 27.5999C212.715 27.5999 210.229 31.994 210.229 31.994H209.953C210.892 25.9521 213.212 23.2057 219.455 23.2057H230.671V16.8892H220.118C212.107 16.8892 203.323 19.6355 203.323 38.036C203.323 51.7679 210.505 56.1619 218.24 56.1619Z" fill="#FFC700"/>
<path d="M235.378 65.2249H243.113V52.317H243.388C243.388 52.317 245.875 56.162 251.952 56.162C260.239 56.162 264.383 49.0216 264.383 41.0571C264.383 33.0926 260.239 25.9521 251.952 25.9521C245.599 25.9521 243.113 30.621 243.113 30.621H242.836V26.7761H235.378V65.2249ZM242.836 41.0571C242.836 35.8939 245.046 31.7194 249.742 31.7194C254.438 31.7194 256.648 35.8939 256.648 41.0571C256.648 46.2202 254.438 50.3945 249.742 50.3945C245.046 50.3945 242.836 46.2202 242.836 41.0571Z" fill="#FFC700"/>
<path d="M274.628 35.5643C274.738 32.4884 276.562 31.1702 279.876 31.1702C282.915 31.1702 284.572 32.4884 284.572 34.7404C284.572 37.9262 280.042 38.3107 275.235 39.5191C270.484 40.7275 266.064 43.1443 266.064 48.4722C266.064 53.7454 269.932 56.162 275.18 56.162C282.528 56.162 284.296 49.8454 284.296 49.8454H284.572V55.3382H292.307V35.839C292.307 28.4239 286.782 25.9521 279.876 25.9521C273.246 25.9521 267.335 28.2591 266.893 35.5643H274.628ZM284.572 40.9472C284.572 45.1765 283.191 51.2184 277.943 51.2184C275.456 51.2184 273.91 49.8454 273.91 47.6483C273.91 45.1216 276.009 43.8583 278.495 43.2541C280.705 42.7049 283.302 42.1006 284.572 40.9472Z" fill="#FFC700"/>
<path d="M291.072 13.8129C290.557 14.3256 289.875 14.9481 289.028 15.6804C288.181 16.4128 287.279 17.1818 286.321 17.9874C285.326 18.793 284.369 19.562 283.448 20.2943C282.49 20.99 281.662 21.5759 280.962 22.052H275.492V21.3379C276.082 20.6422 276.781 19.8366 277.592 18.9211C278.365 17.969 279.139 16.9987 279.912 16.01C280.685 14.9847 281.33 14.0692 281.846 13.2637H291.072V13.8129Z" fill="#F7FAFF"/>
<path d="M2.35004 87.4826V84.9322C2.63963 84.9322 2.87836 84.8602 3.0662 84.7163C3.25405 84.5684 3.40276 84.3681 3.51234 84.1152C3.62583 83.8584 3.71193 83.5666 3.77063 83.2398C3.83324 82.9129 3.88021 82.5686 3.91151 82.2068C3.95848 81.7165 3.99761 81.238 4.02892 80.7711C4.06414 80.3003 4.09545 79.814 4.12284 79.3121C4.15415 78.8102 4.18741 78.2635 4.22264 77.6722L9.63497 77.678V84.9322H10.2631V87.4826H9.03034V86.0819H3.57691V87.4826H2.35004ZM4.36352 84.9322H8.4081V78.8277L5.35559 78.8219C5.32819 79.2498 5.30471 79.6564 5.28514 80.0416C5.26558 80.4268 5.24014 80.8158 5.20883 81.2088C5.18144 81.5979 5.14622 82.0161 5.10317 82.4636C5.06012 82.8915 5.01511 83.2553 4.96815 83.5549C4.92119 83.8506 4.85075 84.1074 4.75683 84.3253C4.66682 84.5431 4.53571 84.7455 4.36352 84.9322ZM12.4065 88.8832L13.6334 85.5625L13.651 86.543L10.8862 79.779H12.1659L14.2322 85.0023H13.8565L15.8289 79.779H17.0734L13.5747 88.8832H12.4065ZM17.9871 86.0819V79.779H19.0144L21.3566 84.4011L23.693 79.779H24.7261V86.0819H23.5403V82.2768L21.6325 86.0819H21.0749L19.167 82.2768V86.0819H17.9871ZM28.1645 86.257C27.6949 86.257 27.3016 86.1714 26.9846 86.0002C26.6676 85.8251 26.4269 85.5956 26.2626 85.3116C26.1021 85.0237 26.0219 84.7085 26.0219 84.3661C26.0219 84.0471 26.0786 83.767 26.1921 83.5257C26.3056 83.2845 26.4739 83.0802 26.697 82.9129C26.92 82.7417 27.194 82.6036 27.5188 82.4986C27.8006 82.4169 28.1195 82.3449 28.4756 82.2826C28.8318 82.2204 29.2055 82.162 29.5968 82.1076C29.9921 82.0531 30.3834 81.9986 30.7709 81.9442L30.3247 82.1893C30.3326 81.6951 30.2269 81.3294 30.0078 81.0921C29.7925 80.8509 29.4207 80.7303 28.8924 80.7303C28.5598 80.7303 28.2545 80.8081 27.9767 80.9637C27.6988 81.1154 27.5051 81.3683 27.3955 81.7224L26.2508 81.3722C26.4074 80.8314 26.7048 80.4015 27.1431 80.0825C27.5853 79.7634 28.1723 79.6039 28.9042 79.6039C29.4716 79.6039 29.9647 79.7012 30.3834 79.8957C30.8061 80.0863 31.1153 80.3898 31.3109 80.8061C31.4127 81.0123 31.4753 81.2302 31.4988 81.4598C31.5223 81.6893 31.534 81.9364 31.534 82.2009V86.0819H30.448V84.6404L30.6593 84.8272C30.3971 85.3096 30.0625 85.6695 29.6555 85.9068C29.2525 86.1403 28.7554 86.257 28.1645 86.257ZM28.3817 85.259C28.73 85.259 29.0294 85.1987 29.2798 85.0781C29.5303 84.9536 29.7319 84.796 29.8845 84.6054C30.0371 84.4148 30.1369 84.2163 30.1839 84.0101C30.2504 83.8234 30.2876 83.6133 30.2954 83.3798C30.3071 83.1464 30.313 82.9596 30.313 82.8196L30.7122 82.9655C30.3247 83.0238 29.9725 83.0764 29.6555 83.123C29.3386 83.1697 29.0509 83.2164 28.7926 83.2631C28.5382 83.3059 28.3113 83.3584 28.1117 83.4207C27.9434 83.479 27.7927 83.5491 27.6597 83.6308C27.5305 83.7125 27.4268 83.8117 27.3485 83.9284C27.2742 84.0451 27.237 84.1871 27.237 84.3544C27.237 84.5179 27.2781 84.6696 27.3603 84.8097C27.4425 84.9458 27.5677 85.0548 27.736 85.1365C27.9043 85.2182 28.1195 85.259 28.3817 85.259ZM35.8878 79.0553C35.5786 79.0553 35.2949 78.9794 35.0366 78.8277C34.7822 78.676 34.5787 78.4736 34.4261 78.2207C34.2734 77.9678 34.1971 77.6858 34.1971 77.3745H35.1716C35.1716 77.569 35.242 77.7364 35.3829 77.8764C35.5238 78.0165 35.6921 78.0865 35.8878 78.0865C36.0873 78.0865 36.2556 78.0165 36.3926 77.8764C36.5335 77.7364 36.6039 77.569 36.6039 77.3745H37.5784C37.5784 77.6858 37.5021 77.9678 37.3494 78.2207C37.1968 78.4736 36.9914 78.676 36.7331 78.8277C36.4787 78.9794 36.1969 79.0553 35.8878 79.0553ZM38.4002 79.779V86.0819H37.2203V81.699L34.0504 86.0819H33.0524V79.779H34.2324V84.0743L37.4081 79.779H38.4002ZM45.1442 86.257C44.5102 86.257 43.9604 86.115 43.4947 85.831C43.029 85.5469 42.6689 85.1559 42.4146 84.6579C42.1641 84.156 42.0389 83.5783 42.0389 82.9246C42.0389 82.2671 42.168 81.6893 42.4263 81.1913C42.6846 80.6894 43.0466 80.3003 43.5123 80.0241C43.978 79.744 44.522 79.6039 45.1442 79.6039C45.7782 79.6039 46.328 79.7459 46.7937 80.0299C47.2594 80.3139 47.6195 80.705 47.8739 81.203C48.1282 81.701 48.2554 82.2749 48.2554 82.9246C48.2554 83.5821 48.1263 84.1619 47.868 84.6638C47.6136 85.1618 47.2536 85.5528 46.7879 85.8368C46.3222 86.1169 45.7743 86.257 45.1442 86.257ZM45.1442 85.1073C45.7508 85.1073 46.2028 84.905 46.5002 84.5004C46.8016 84.0918 46.9522 83.5666 46.9522 82.9246C46.9522 82.2671 46.7996 81.7418 46.4944 81.3489C46.193 80.952 45.743 80.7536 45.1442 80.7536C44.7333 80.7536 44.3948 80.847 44.1287 81.0337C43.8625 81.2166 43.6649 81.4714 43.5358 81.7983C43.4066 82.1212 43.342 82.4966 43.342 82.9246C43.342 83.586 43.4947 84.1152 43.7999 84.512C44.1052 84.9089 44.5533 85.1073 45.1442 85.1073ZM54.502 86.2628C53.8993 86.2589 53.3867 86.1286 52.964 85.8718C52.5414 85.615 52.2107 85.2454 51.972 84.763C51.7371 84.2766 51.6002 83.6911 51.561 83.0063C51.5415 82.6756 51.5434 82.3099 51.5669 81.9091C51.5904 81.5045 51.6334 81.1135 51.6961 80.7361C51.7626 80.3587 51.8467 80.0435 51.9485 79.7906C52.062 79.5105 52.2165 79.2537 52.4122 79.0203C52.6079 78.783 52.8231 78.5845 53.0579 78.425C53.3084 78.2538 53.5863 78.1215 53.8915 78.0282C54.1968 77.9309 54.5157 77.855 54.8484 77.8005C55.1849 77.7461 55.5234 77.6994 55.8639 77.6605C56.2083 77.6177 56.5429 77.5652 56.8677 77.5029L56.9851 78.5943C56.7699 78.6448 56.5155 78.6857 56.222 78.7168C55.9324 78.7479 55.6311 78.783 55.318 78.8219C55.0088 78.8608 54.7133 78.9152 54.4316 78.9853C54.1498 79.0553 53.9052 79.1545 53.6978 79.2829C53.4043 79.4619 53.1793 79.7226 53.0227 80.0649C52.8701 80.4073 52.7781 80.7789 52.7468 81.1796C52.9895 80.8139 53.2986 80.5513 53.6743 80.3918C54.05 80.2284 54.4394 80.1466 54.8425 80.1466C55.406 80.1466 55.8913 80.2789 56.2983 80.5435C56.7092 80.8081 57.0243 81.168 57.2434 81.6232C57.4626 82.0784 57.5721 82.5939 57.5721 83.1697C57.5721 83.7922 57.443 84.3369 57.1847 84.8038C56.9303 85.2668 56.5722 85.6287 56.1105 85.8893C55.6487 86.1461 55.1125 86.2706 54.502 86.2628ZM54.5666 85.1131C55.1301 85.1131 55.5547 84.94 55.8404 84.5937C56.13 84.2475 56.2748 83.7864 56.2748 83.2106C56.2748 82.6192 56.1261 82.1543 55.8287 81.8158C55.5313 81.4773 55.1106 81.308 54.5666 81.308C54.0148 81.308 53.5921 81.4773 53.2986 81.8158C53.009 82.1543 52.8642 82.6192 52.8642 83.2106C52.8642 83.8097 53.011 84.2766 53.3045 84.6112C53.598 84.9458 54.0187 85.1131 54.5666 85.1131ZM59.4946 88.8832L60.7215 85.5625L60.7391 86.543L57.9742 79.779H59.254L61.3203 85.0023H60.9446L62.917 79.779H64.1615L60.6628 88.8832H59.4946ZM64.3821 87.4826V85.1015C64.7304 85.1015 64.9789 84.9867 65.1276 84.7571C65.2802 84.5237 65.4015 84.1288 65.4915 83.5724C65.5463 83.2339 65.5913 82.874 65.6266 82.4927C65.6657 82.1115 65.699 81.699 65.7264 81.2555C65.7537 80.8081 65.7811 80.3159 65.8085 79.779H70.3521V85.1015H70.9743V87.4826H69.812V86.0819H65.5502V87.4826H64.3821ZM66.1373 85.1015H69.1193V80.7594H66.9004C66.8848 81.0162 66.8671 81.2808 66.8476 81.5531C66.8319 81.8255 66.8123 82.0959 66.7889 82.3644C66.7693 82.6328 66.7458 82.8896 66.7184 83.1347C66.691 83.3798 66.6597 83.6016 66.6245 83.8C66.5775 84.1074 66.5208 84.3642 66.4543 84.5704C66.3916 84.7766 66.286 84.9536 66.1373 85.1015ZM73.0005 88.8832L74.2274 85.5625L74.245 86.543L71.4801 79.779H72.7599L74.8262 85.0023H74.4505L76.4229 79.779H77.6674L74.1687 88.8832H73.0005ZM85.5432 87.325V86.0819H78.5811V79.779H79.7611V84.9847H81.7511V79.779H82.931V84.9847H84.9151V79.779H86.095V84.9847H86.7701V87.325H85.5432ZM90.5251 86.257C89.895 86.257 89.3413 86.1208 88.8638 85.8485C88.3903 85.5722 88.0205 85.189 87.7543 84.6988C87.4921 84.2047 87.361 83.6327 87.361 82.983C87.361 82.2943 87.4902 81.6971 87.7485 81.1913C88.0107 80.6855 88.3746 80.2945 88.8403 80.0183C89.306 79.742 89.8481 79.6039 90.4664 79.6039C91.1121 79.6039 91.6619 79.7537 92.1159 80.0533C92.5699 80.349 92.9084 80.7711 93.1315 81.3197C93.3584 81.8683 93.4485 82.52 93.4015 83.2748H92.1746V82.8312C92.1668 82.0998 92.0259 81.559 91.752 81.2088C91.4819 80.8586 91.0691 80.6836 90.5134 80.6836C89.8989 80.6836 89.4371 80.8762 89.128 81.2613C88.8188 81.6465 88.6642 82.2029 88.6642 82.9305C88.6642 83.623 88.8188 84.1599 89.128 84.5412C89.4371 84.9186 89.8833 85.1073 90.4664 85.1073C90.8499 85.1073 91.1806 85.0217 91.4585 84.8505C91.7402 84.6754 91.9594 84.4264 92.1159 84.1035L93.3193 84.4828C93.0728 85.047 92.699 85.4847 92.1981 85.796C91.6972 86.1033 91.1395 86.257 90.5251 86.257ZM88.2651 83.2748V82.3235H92.791V83.2748H88.2651ZM94.5408 86.0819V79.779H95.5681L97.9103 84.4011L100.247 79.779H101.28V86.0819H100.094V82.2768L98.1862 86.0819H97.6285L95.7207 82.2768V86.0819H94.5408ZM105.161 82.8896V81.9091H112.909V82.8896H105.161ZM119.501 86.257C118.852 86.257 118.3 86.1131 117.846 85.8251C117.392 85.5372 117.044 85.1423 116.801 84.6404C116.562 84.1385 116.441 83.5685 116.437 82.9305C116.441 82.2807 116.566 81.7068 116.813 81.2088C117.059 80.7069 117.412 80.3139 117.87 80.0299C118.327 79.7459 118.877 79.6039 119.519 79.6039C120.212 79.6039 120.803 79.7751 121.292 80.1175C121.785 80.4598 122.11 80.9287 122.266 81.524L121.045 81.8741C120.924 81.5201 120.724 81.2458 120.447 81.0512C120.173 80.8528 119.858 80.7536 119.501 80.7536C119.098 80.7536 118.768 80.8489 118.509 81.0396C118.251 81.2263 118.059 81.4831 117.934 81.8099C117.809 82.1367 117.744 82.5103 117.74 82.9305C117.744 83.5802 117.893 84.1054 118.187 84.5062C118.484 84.9069 118.922 85.1073 119.501 85.1073C119.897 85.1073 120.216 85.0178 120.458 84.8388C120.705 84.656 120.893 84.3953 121.022 84.0568L122.266 84.3486C122.059 84.9633 121.716 85.4361 121.239 85.7668C120.762 86.0936 120.182 86.257 119.501 86.257ZM126.043 86.257C125.409 86.257 124.859 86.115 124.394 85.831C123.928 85.5469 123.568 85.1559 123.314 84.6579C123.063 84.156 122.938 83.5783 122.938 82.9246C122.938 82.2671 123.067 81.6893 123.325 81.1913C123.584 80.6894 123.946 80.3003 124.411 80.0241C124.877 79.744 125.421 79.6039 126.043 79.6039C126.677 79.6039 127.227 79.7459 127.693 80.0299C128.159 80.3139 128.519 80.705 128.773 81.203C129.027 81.701 129.155 82.2749 129.155 82.9246C129.155 83.5821 129.025 84.1619 128.767 84.6638C128.513 85.1618 128.153 85.5528 127.687 85.8368C127.221 86.1169 126.673 86.257 126.043 86.257ZM126.043 85.1073C126.65 85.1073 127.102 84.905 127.399 84.5004C127.701 84.0918 127.851 83.5666 127.851 82.9246C127.851 82.2671 127.699 81.7418 127.393 81.3489C127.092 80.952 126.642 80.7536 126.043 80.7536C125.632 80.7536 125.294 80.847 125.028 81.0337C124.762 81.2166 124.564 81.4714 124.435 81.7983C124.306 82.1212 124.241 82.4966 124.241 82.9246C124.241 83.586 124.394 84.1152 124.699 84.512C125.004 84.9089 125.452 85.1073 126.043 85.1073ZM132.532 86.257C131.918 86.257 131.366 86.1267 130.877 85.866C130.392 85.6053 130.008 85.2454 129.726 84.7863L130.701 84.1502C130.928 84.4537 131.19 84.689 131.487 84.8563C131.789 85.0236 132.127 85.1073 132.503 85.1073C132.894 85.1073 133.204 85.0198 133.43 84.8447C133.661 84.6657 133.777 84.4264 133.777 84.1268C133.777 83.8895 133.71 83.7144 133.577 83.6016C133.448 83.4849 133.268 83.409 133.037 83.374C132.81 83.339 132.552 83.3215 132.262 83.3215H131.699V82.341H132.262C132.646 82.341 132.961 82.2885 133.207 82.1834C133.458 82.0745 133.583 81.8702 133.583 81.5706C133.583 81.2788 133.476 81.0687 133.26 80.9403C133.049 80.812 132.797 80.7478 132.503 80.7478C132.174 80.7478 131.855 80.8178 131.546 80.9579C131.237 81.094 130.967 81.2633 130.736 81.4656L130.02 80.631C130.356 80.3081 130.74 80.0572 131.17 79.8782C131.605 79.6953 132.071 79.6039 132.568 79.6039C132.975 79.6039 133.35 79.6759 133.695 79.8198C134.043 79.9599 134.321 80.168 134.528 80.4443C134.74 80.7205 134.845 81.061 134.845 81.4656C134.845 81.7807 134.775 82.0687 134.634 82.3293C134.493 82.59 134.278 82.8273 133.988 83.0413L133.953 82.627C134.192 82.7009 134.391 82.8196 134.552 82.983C134.712 83.1464 134.832 83.339 134.91 83.5607C134.992 83.7786 135.033 84.0101 135.033 84.2552C135.033 84.6793 134.92 85.0412 134.693 85.3407C134.47 85.6403 134.168 85.8679 133.789 86.0236C133.409 86.1792 132.99 86.257 132.532 86.257ZM135.856 87.4826V85.1015C136.205 85.1015 136.453 84.9867 136.602 84.7571C136.755 84.5237 136.876 84.1288 136.966 83.5724C137.021 83.2339 137.066 82.874 137.101 82.4927C137.14 82.1115 137.173 81.699 137.201 81.2555C137.228 80.8081 137.255 80.3159 137.283 79.779H141.826V85.1015H142.449V87.4826H141.286V86.0819H137.025V87.4826H135.856ZM137.612 85.1015H140.594V80.7594H138.375C138.359 81.0162 138.341 81.2808 138.322 81.5531C138.306 81.8255 138.287 82.0959 138.263 82.3644C138.244 82.6328 138.22 82.8896 138.193 83.1347C138.165 83.3798 138.134 83.6016 138.099 83.8C138.052 84.1074 137.995 84.3642 137.929 84.5704C137.866 84.7766 137.76 84.9536 137.612 85.1015ZM145.408 86.257C144.939 86.257 144.545 86.1714 144.228 86.0002C143.911 85.8251 143.671 85.5956 143.506 85.3116C143.346 85.0237 143.266 84.7085 143.266 84.3661C143.266 84.0471 143.322 83.767 143.436 83.5257C143.549 83.2845 143.718 83.0802 143.941 82.9129C144.164 82.7417 144.438 82.6036 144.762 82.4986C145.044 82.4169 145.363 82.3449 145.719 82.2826C146.075 82.2204 146.449 82.162 146.841 82.1076C147.236 82.0531 147.627 81.9986 148.015 81.9442L147.568 82.1893C147.576 81.6951 147.471 81.3294 147.251 81.0921C147.036 80.8509 146.664 80.7303 146.136 80.7303C145.803 80.7303 145.498 80.8081 145.22 80.9637C144.942 81.1154 144.749 81.3683 144.639 81.7224L143.495 81.3722C143.651 80.8314 143.948 80.4015 144.387 80.0825C144.829 79.7634 145.416 79.6039 146.148 79.6039C146.715 79.6039 147.208 79.7012 147.627 79.8957C148.05 80.0863 148.359 80.3898 148.555 80.8061C148.656 81.0123 148.719 81.2302 148.742 81.4598C148.766 81.6893 148.778 81.9364 148.778 82.2009V86.0819H147.692V84.6404L147.903 84.8272C147.641 85.3096 147.306 85.6695 146.899 85.9068C146.496 86.1403 145.999 86.257 145.408 86.257ZM145.625 85.259C145.974 85.259 146.273 85.1987 146.524 85.0781C146.774 84.9536 146.976 84.796 147.128 84.6054C147.281 84.4148 147.381 84.2163 147.428 84.0101C147.494 83.8234 147.531 83.6133 147.539 83.3798C147.551 83.1464 147.557 82.9596 147.557 82.8196L147.956 82.9655C147.568 83.0238 147.216 83.0764 146.899 83.123C146.582 83.1697 146.295 83.2164 146.036 83.2631C145.782 83.3059 145.555 83.3584 145.355 83.4207C145.187 83.479 145.036 83.5491 144.903 83.6308C144.774 83.7125 144.671 83.8117 144.592 83.9284C144.518 84.0451 144.481 84.1871 144.481 84.3544C144.481 84.5179 144.522 84.6696 144.604 84.8097C144.686 84.9458 144.811 85.0548 144.98 85.1365C145.148 85.2182 145.363 85.259 145.625 85.259ZM150.296 86.0819V79.779H153.084C153.268 79.779 153.452 79.7906 153.636 79.814C153.82 79.8334 153.983 79.8626 154.124 79.9015C154.444 79.991 154.718 80.17 154.945 80.4384C155.172 80.703 155.286 81.0571 155.286 81.5006C155.286 81.7535 155.247 81.9675 155.168 82.1426C155.09 82.3138 154.983 82.4616 154.846 82.5861C154.783 82.6406 154.716 82.6892 154.646 82.732C154.576 82.7748 154.505 82.8079 154.435 82.8312C154.579 82.8546 154.722 82.9052 154.863 82.983C155.078 83.0958 155.255 83.2592 155.391 83.4732C155.532 83.6833 155.603 83.9654 155.603 84.3194C155.603 84.7435 155.499 85.0995 155.292 85.3874C155.084 85.6715 154.791 85.866 154.411 85.971C154.262 86.0138 154.094 86.043 153.906 86.0586C153.722 86.0741 153.538 86.0819 153.355 86.0819H150.296ZM151.541 85.119H153.278C153.36 85.119 153.454 85.1112 153.56 85.0956C153.666 85.0801 153.76 85.0587 153.842 85.0314C154.018 84.977 154.143 84.8777 154.217 84.7338C154.296 84.5898 154.335 84.4362 154.335 84.2727C154.335 84.051 154.276 83.8739 154.159 83.7417C154.041 83.6055 153.893 83.5179 153.713 83.479C153.634 83.4518 153.548 83.4362 153.454 83.4324C153.36 83.4285 153.28 83.4265 153.214 83.4265H151.541V85.119ZM151.541 82.4461H152.914C153.028 82.4461 153.143 82.4402 153.261 82.4286C153.378 82.413 153.48 82.3877 153.566 82.3527C153.718 82.2943 153.832 82.197 153.906 82.0609C153.981 81.9208 154.018 81.7691 154.018 81.6057C154.018 81.4267 153.977 81.2672 153.895 81.1271C153.812 80.987 153.689 80.8898 153.525 80.8353C153.411 80.7964 153.28 80.775 153.131 80.7711C152.987 80.7633 152.895 80.7594 152.856 80.7594H151.541V82.4461ZM158.571 86.257C158.101 86.257 157.708 86.1714 157.391 86.0002C157.074 85.8251 156.833 85.5956 156.669 85.3116C156.508 85.0237 156.428 84.7085 156.428 84.3661C156.428 84.0471 156.485 83.767 156.598 83.5257C156.712 83.2845 156.88 83.0802 157.103 82.9129C157.326 82.7417 157.6 82.6036 157.925 82.4986C158.207 82.4169 158.526 82.3449 158.882 82.2826C159.238 82.2204 159.612 82.162 160.003 82.1076C160.398 82.0531 160.79 81.9986 161.177 81.9442L160.731 82.1893C160.739 81.6951 160.633 81.3294 160.414 81.0921C160.199 80.8509 159.827 80.7303 159.299 80.7303C158.966 80.7303 158.661 80.8081 158.383 80.9637C158.105 81.1154 157.911 81.3683 157.802 81.7224L156.657 81.3722C156.814 80.8314 157.111 80.4015 157.549 80.0825C157.991 79.7634 158.579 79.6039 159.31 79.6039C159.878 79.6039 160.371 79.7012 160.79 79.8957C161.212 80.0863 161.521 80.3898 161.717 80.8061C161.819 81.0123 161.881 81.2302 161.905 81.4598C161.928 81.6893 161.94 81.9364 161.94 82.2009V86.0819H160.854V84.6404L161.066 84.8272C160.803 85.3096 160.469 85.6695 160.062 85.9068C159.659 86.1403 159.162 86.257 158.571 86.257ZM158.788 85.259C159.136 85.259 159.436 85.1987 159.686 85.0781C159.936 84.9536 160.138 84.796 160.291 84.6054C160.443 84.4148 160.543 84.2163 160.59 84.0101C160.657 83.8234 160.694 83.6133 160.702 83.3798C160.713 83.1464 160.719 82.9596 160.719 82.8196L161.118 82.9655C160.731 83.0238 160.379 83.0764 160.062 83.123C159.745 83.1697 159.457 83.2164 159.199 83.2631C158.944 83.3059 158.717 83.3584 158.518 83.4207C158.35 83.479 158.199 83.5491 158.066 83.6308C157.937 83.7125 157.833 83.8117 157.755 83.9284C157.68 84.0451 157.643 84.1871 157.643 84.3544C157.643 84.5179 157.684 84.6696 157.766 84.8097C157.849 84.9458 157.974 85.0548 158.142 85.1365C158.31 85.2182 158.526 85.259 158.788 85.259ZM166.294 79.0553C165.985 79.0553 165.701 78.9794 165.443 78.8277C165.188 78.676 164.985 78.4736 164.832 78.2207C164.68 77.9678 164.603 77.6858 164.603 77.3745H165.578C165.578 77.569 165.648 77.7364 165.789 77.8764C165.93 78.0165 166.098 78.0865 166.294 78.0865C166.494 78.0865 166.662 78.0165 166.799 77.8764C166.94 77.7364 167.01 77.569 167.01 77.3745H167.985C167.985 77.6858 167.908 77.9678 167.756 78.2207C167.603 78.4736 167.398 78.676 167.139 78.8277C166.885 78.9794 166.603 79.0553 166.294 79.0553ZM168.806 79.779V86.0819H167.626V81.699L164.457 86.0819H163.459V79.779H164.639V84.0743L167.814 79.779H168.806ZM172.791 86.0819V79.779H174.018V82.3527H177.112V79.779H178.339V86.0819H177.112V83.5024H174.018V86.0819H172.791ZM181.776 86.257C181.307 86.257 180.913 86.1714 180.596 86.0002C180.279 85.8251 180.039 85.5956 179.874 85.3116C179.714 85.0237 179.633 84.7085 179.633 84.3661C179.633 84.0471 179.69 83.767 179.804 83.5257C179.917 83.2845 180.086 83.0802 180.309 82.9129C180.532 82.7417 180.806 82.6036 181.13 82.4986C181.412 82.4169 181.731 82.3449 182.087 82.2826C182.443 82.2204 182.817 82.162 183.208 82.1076C183.604 82.0531 183.995 81.9986 184.383 81.9442L183.936 82.1893C183.944 81.6951 183.839 81.3294 183.619 81.0921C183.404 80.8509 183.032 80.7303 182.504 80.7303C182.171 80.7303 181.866 80.8081 181.588 80.9637C181.31 81.1154 181.117 81.3683 181.007 81.7224L179.862 81.3722C180.019 80.8314 180.316 80.4015 180.755 80.0825C181.197 79.7634 181.784 79.6039 182.516 79.6039C183.083 79.6039 183.576 79.7012 183.995 79.8957C184.418 80.0863 184.727 80.3898 184.923 80.8061C185.024 81.0123 185.087 81.2302 185.11 81.4598C185.134 81.6893 185.146 81.9364 185.146 82.2009V86.0819H184.06V84.6404L184.271 84.8272C184.009 85.3096 183.674 85.6695 183.267 85.9068C182.864 86.1403 182.367 86.257 181.776 86.257ZM181.993 85.259C182.342 85.259 182.641 85.1987 182.891 85.0781C183.142 84.9536 183.343 84.796 183.496 84.6054C183.649 84.4148 183.749 84.2163 183.795 84.0101C183.862 83.8234 183.899 83.6133 183.907 83.3798C183.919 83.1464 183.925 82.9596 183.925 82.8196L184.324 82.9655C183.936 83.0238 183.584 83.0764 183.267 83.123C182.95 83.1697 182.663 83.2164 182.404 83.2631C182.15 83.3059 181.923 83.3584 181.723 83.4207C181.555 83.479 181.404 83.5491 181.271 83.6308C181.142 83.7125 181.038 83.8117 180.96 83.9284C180.886 84.0451 180.849 84.1871 180.849 84.3544C180.849 84.5179 180.89 84.6696 180.972 84.8097C181.054 84.9458 181.179 85.0548 181.348 85.1365C181.516 85.2182 181.731 85.259 181.993 85.259ZM189.382 86.257C188.732 86.257 188.181 86.1131 187.727 85.8251C187.273 85.5372 186.924 85.1423 186.682 84.6404C186.443 84.1385 186.322 83.5685 186.318 82.9305C186.322 82.2807 186.447 81.7068 186.693 81.2088C186.94 80.7069 187.292 80.3139 187.75 80.0299C188.208 79.7459 188.758 79.6039 189.4 79.6039C190.092 79.6039 190.683 79.7751 191.172 80.1175C191.665 80.4598 191.99 80.9287 192.147 81.524L190.926 81.8741C190.805 81.5201 190.605 81.2458 190.327 81.0512C190.053 80.8528 189.738 80.7536 189.382 80.7536C188.979 80.7536 188.648 80.8489 188.39 81.0396C188.132 81.2263 187.94 81.4831 187.815 81.8099C187.689 82.1367 187.625 82.5103 187.621 82.9305C187.625 83.5802 187.774 84.1054 188.067 84.5062C188.364 84.9069 188.803 85.1073 189.382 85.1073C189.777 85.1073 190.096 85.0178 190.339 84.8388C190.585 84.656 190.773 84.3953 190.902 84.0568L192.147 84.3486C191.939 84.9633 191.597 85.4361 191.12 85.7668C190.642 86.0936 190.063 86.257 189.382 86.257ZM194.912 86.0819V80.8762H192.746V79.779H198.305V80.8762H196.139V86.0819H194.912ZM202.058 86.257C201.424 86.257 200.874 86.115 200.408 85.831C199.943 85.5469 199.582 85.1559 199.328 84.6579C199.078 84.156 198.952 83.5783 198.952 82.9246C198.952 82.2671 199.082 81.6893 199.34 81.1913C199.598 80.6894 199.96 80.3003 200.426 80.0241C200.892 79.744 201.435 79.6039 202.058 79.6039C202.692 79.6039 203.242 79.7459 203.707 80.0299C204.173 80.3139 204.533 80.705 204.787 81.203C205.042 81.701 205.169 82.2749 205.169 82.9246C205.169 83.5821 205.04 84.1619 204.782 84.6638C204.527 85.1618 204.167 85.5528 203.701 85.8368C203.236 86.1169 202.688 86.257 202.058 86.257ZM202.058 85.1073C202.664 85.1073 203.116 84.905 203.414 84.5004C203.715 84.0918 203.866 83.5666 203.866 82.9246C203.866 82.2671 203.713 81.7418 203.408 81.3489C203.107 80.952 202.656 80.7536 202.058 80.7536C201.647 80.7536 201.308 80.847 201.042 81.0337C200.776 81.2166 200.578 81.4714 200.449 81.7983C200.32 82.1212 200.256 82.4966 200.256 82.9246C200.256 83.586 200.408 84.1152 200.713 84.512C201.019 84.9089 201.467 85.1073 202.058 85.1073ZM210.316 86.0819V83.8934H209.059C208.911 83.8934 208.733 83.8876 208.525 83.8759C208.322 83.8642 208.13 83.8428 207.95 83.8117C207.476 83.7261 207.081 83.5218 206.764 83.1989C206.447 82.8721 206.289 82.4227 206.289 81.8508C206.289 81.2983 206.437 80.8548 206.735 80.5202C207.036 80.1817 207.418 79.9638 207.88 79.8665C208.079 79.8198 208.283 79.7945 208.49 79.7906C208.701 79.7829 208.879 79.779 209.024 79.779H211.543L211.548 86.0819H210.316ZM206.107 86.0819L207.709 83.5899H209.007L207.416 86.0819H206.107ZM208.954 82.9129H210.316V80.7594H208.954C208.868 80.7594 208.762 80.7633 208.637 80.7711C208.512 80.7789 208.39 80.8003 208.273 80.8353C208.152 80.8703 208.034 80.9326 207.921 81.0221C207.811 81.1115 207.721 81.2263 207.651 81.3664C207.58 81.5026 207.545 81.6601 207.545 81.8391C207.545 82.1076 207.621 82.3293 207.774 82.5044C207.926 82.6756 208.108 82.7884 208.32 82.8429C208.433 82.874 208.547 82.8935 208.66 82.9013C208.774 82.9091 208.872 82.9129 208.954 82.9129ZM220.145 87.325V86.0819H213.183V79.779H214.363V84.9847H216.353V79.779H217.533V84.9847H219.517V79.779H220.697V84.9847H221.372V87.325H220.145ZM225.127 86.257C224.497 86.257 223.943 86.1208 223.466 85.8485C222.992 85.5722 222.623 85.189 222.356 84.6988C222.094 84.2047 221.963 83.6327 221.963 82.983C221.963 82.2943 222.092 81.6971 222.351 81.1913C222.613 80.6855 222.977 80.2945 223.442 80.0183C223.908 79.742 224.45 79.6039 225.068 79.6039C225.714 79.6039 226.264 79.7537 226.718 80.0533C227.172 80.349 227.51 80.7711 227.734 81.3197C227.961 81.8683 228.051 82.52 228.004 83.2748H226.777V82.8312C226.769 82.0998 226.628 81.559 226.354 81.2088C226.084 80.8586 225.671 80.6836 225.115 80.6836C224.501 80.6836 224.039 80.8762 223.73 81.2613C223.421 81.6465 223.266 82.2029 223.266 82.9305C223.266 83.623 223.421 84.1599 223.73 84.5412C224.039 84.9186 224.485 85.1073 225.068 85.1073C225.452 85.1073 225.783 85.0217 226.061 84.8505C226.342 84.6754 226.561 84.4264 226.718 84.1035L227.921 84.4828C227.675 85.047 227.301 85.4847 226.8 85.796C226.299 86.1033 225.742 86.257 225.127 86.257ZM222.867 83.2748V82.3235H227.393V83.2748H222.867ZM232.133 86.257C231.503 86.257 230.949 86.1208 230.472 85.8485C229.998 85.5722 229.628 85.189 229.362 84.6988C229.1 84.2047 228.969 83.6327 228.969 82.983C228.969 82.2943 229.098 81.6971 229.356 81.1913C229.618 80.6855 229.982 80.2945 230.448 80.0183C230.914 79.742 231.456 79.6039 232.074 79.6039C232.72 79.6039 233.27 79.7537 233.724 80.0533C234.178 80.349 234.516 80.7711 234.739 81.3197C234.966 81.8683 235.056 82.52 235.009 83.2748H233.782V82.8312C233.775 82.0998 233.634 81.559 233.36 81.2088C233.09 80.8586 232.677 80.6836 232.121 80.6836C231.507 80.6836 231.045 80.8762 230.736 81.2613C230.427 81.6465 230.272 82.2029 230.272 82.9305C230.272 83.623 230.427 84.1599 230.736 84.5412C231.045 84.9186 231.491 85.1073 232.074 85.1073C232.458 85.1073 232.788 85.0217 233.066 84.8505C233.348 84.6754 233.567 84.4264 233.724 84.1035L234.927 84.4828C234.68 85.047 234.307 85.4847 233.806 85.796C233.305 86.1033 232.747 86.257 232.133 86.257ZM229.873 83.2748V82.3235H234.399V83.2748H229.873Z" fill="#F7FAFF"/>
</svg>
