<svg width="33" height="33" viewBox="0 0 33 33" fill="none" xmlns="http://www.w3.org/2000/svg">
<path d="M22.5154 4.46854C24.1095 4.4733 25.6369 5.10866 26.7641 6.23586C27.8913 7.36305 28.5267 8.8905 28.5315 10.4846V22.5154C28.5267 24.1095 27.8913 25.6369 26.7641 26.7641C25.6369 27.8913 24.1095 28.5267 22.5154 28.5315H10.4846C8.8905 28.5267 7.36305 27.8913 6.23586 26.7641C5.10866 25.6369 4.4733 24.1095 4.46854 22.5154V10.4846C4.4733 8.8905 5.10866 7.36305 6.23586 6.23586C7.36305 5.10866 8.8905 4.4733 10.4846 4.46854H22.5154ZM22.5154 2.0625H10.4846C5.85234 2.0625 2.0625 5.85234 2.0625 10.4846V22.5154C2.0625 27.1477 5.85234 30.9375 10.4846 30.9375H22.5154C27.1477 30.9375 30.9375 27.1477 30.9375 22.5154V10.4846C30.9375 5.85234 27.1477 2.0625 22.5154 2.0625Z" fill="white"/>
<path d="M24.3201 10.4846C23.9632 10.4846 23.6143 10.3788 23.3175 10.1805C23.0207 9.98217 22.7894 9.70032 22.6528 9.37056C22.5162 9.04079 22.4805 8.67793 22.5501 8.32786C22.6197 7.97778 22.7916 7.65622 23.044 7.40383C23.2964 7.15144 23.6179 6.97956 23.968 6.90992C24.3181 6.84029 24.681 6.87603 25.0107 7.01262C25.3405 7.14921 25.6223 7.38052 25.8206 7.6773C26.0189 7.97408 26.1248 8.323 26.1248 8.67993C26.1253 8.91707 26.079 9.15197 25.9885 9.37116C25.8979 9.59034 25.765 9.78949 25.5973 9.95718C25.4297 10.1249 25.2305 10.2578 25.0113 10.3483C24.7921 10.4388 24.5572 10.4851 24.3201 10.4846ZM16.5 11.6873C17.4519 11.6873 18.3824 11.9696 19.1738 12.4984C19.9653 13.0272 20.5821 13.7789 20.9464 14.6583C21.3106 15.5377 21.4059 16.5054 21.2202 17.4389C21.0345 18.3725 20.5762 19.2301 19.9031 19.9031C19.23 20.5762 18.3725 21.0346 17.4389 21.2203C16.5053 21.406 15.5377 21.3107 14.6583 20.9464C13.7788 20.5821 13.0272 19.9653 12.4984 19.1738C11.9695 18.3824 11.6873 17.4519 11.6873 16.5C11.6887 15.224 12.1961 14.0007 13.0984 13.0984C14.0007 12.1962 15.224 11.6887 16.5 11.6873ZM16.5 9.28128C15.0723 9.28128 13.6766 9.70465 12.4895 10.4979C11.3024 11.2911 10.3771 12.4185 9.83075 13.7375C9.28438 15.0566 9.14142 16.508 9.41996 17.9083C9.6985 19.3086 10.386 20.5949 11.3956 21.6045C12.4051 22.614 13.6914 23.3015 15.0917 23.5801C16.492 23.8586 17.9434 23.7157 19.2625 23.1693C20.5816 22.6229 21.709 21.6977 22.5022 20.5106C23.2954 19.3234 23.7188 17.9278 23.7188 16.5C23.7188 14.5855 22.9582 12.7494 21.6044 11.3956C20.2507 10.0418 18.4145 9.28128 16.5 9.28128Z" fill="white"/>
</svg>
