<svg width="34" height="39" viewBox="0 0 34 39" fill="none" xmlns="http://www.w3.org/2000/svg">
<path d="M10.8439 12.9192C10.9827 9.0683 13.274 7.41795 17.4399 7.41795C21.2587 7.41795 23.3416 9.0683 23.3416 11.8877C23.3416 15.8761 17.6482 16.3574 11.6076 17.8702C5.63651 19.3831 0.0820312 22.4086 0.0820312 29.0788C0.0820312 35.6804 4.94224 38.7061 11.5382 38.7061C20.7726 38.7061 22.9944 30.7981 22.9944 30.7981H23.3416V37.6747H33.0618V13.263C33.0618 3.97969 26.1187 0.885254 17.4399 0.885254C9.10809 0.885254 1.67895 3.7734 1.1235 12.9192H10.8439ZM23.3416 19.6582C23.3416 24.9531 21.6056 32.5171 15.0098 32.5171C11.8854 32.5171 9.94131 30.7981 9.94131 28.0474C9.94131 24.8844 12.5797 23.3027 15.7041 22.5462C18.4814 21.8587 21.7446 21.1022 23.3416 19.6582Z" fill="#F7FAFF"/>
</svg>
